<?xml version="1.0"?>
<svg xmlns="http://www.w3.org/2000/svg" xmlns:xlink="http://www.w3.org/1999/xlink" version="1.1" id="Capa_1" x="0px" y="0px" viewBox="0 0 512 512" style="enable-background:new 0 0 512 512;" xml:space="preserve" width="512px" height="512px" class=""><g><path style="fill:#FFCE00" d="M256,0C115.3,0,0,114.3,0,255s115.3,257,256,257s256-116.3,256-257S396.7,0,256,0z" data-original="#FDBF00" class="" data-old_color="#FDBF00"/><path style="fill:#FFCE00" d="M512,255c0,140.7-115.3,257-256,257V0C396.7,0,512,114.3,512,255z" data-original="#FF9F00" class="" data-old_color="#FF9F00"/><g>
	<path style="fill:#FF3F07" d="M421,255c0,90.899-74.099,165-165,165S91,345.899,91,255h30c0,74.399,60.601,135,135,135   s135-60.601,135-135H421z" data-original="#8C4A37" class="active-path" data-old_color="#8C4A37"/>
	<rect x="181" y="150" style="fill:#FF3F07" width="30" height="60" data-original="#8C4A37" class="active-path" data-old_color="#8C4A37"/>
</g><g>
	<rect x="301" y="150" style="fill:#000000" width="30" height="60" data-original="#804231" class="" data-old_color="#804231"/>
	<path style="fill:#000000" d="M421,255c0,90.899-74.099,165-165,165v-30c74.399,0,135-60.601,135-135H421z" data-original="#804231" class="" data-old_color="#804231"/>
</g></g> </svg>
